<svg width="20" height="20" viewBox="0 0 20 20" fill="none"
    xmlns="http://www.w3.org/2000/svg">
    <path d="M5.83333 9.99984H7.5V11.6665H5.83333V9.99984ZM17.5 4.99984V16.6665C17.5 17.1085 17.3244 17.5325 17.0118 17.845C16.6993 18.1576 16.2754 18.3332 15.8333 18.3332H4.16667C3.24167 18.3332 2.5 17.5832 2.5 16.6665V4.99984C2.5 4.55781 2.67559 4.13389 2.98816 3.82133C3.30072 3.50877 3.72464 3.33317 4.16667 3.33317H5V1.6665H6.66667V3.33317H13.3333V1.6665H15V3.33317H15.8333C16.2754 3.33317 16.6993 3.50877 17.0118 3.82133C17.3244 4.13389 17.5 4.55781 17.5 4.99984ZM4.16667 6.6665H15.8333V4.99984H4.16667V6.6665ZM15.8333 16.6665V8.33317H4.16667V16.6665H15.8333ZM12.5 11.6665V9.99984H14.1667V11.6665H12.5ZM9.16667 11.6665V9.99984H10.8333V11.6665H9.16667ZM5.83333 13.3332H7.5V14.9998H5.83333V13.3332ZM12.5 14.9998V13.3332H14.1667V14.9998H12.5ZM9.16667 14.9998V13.3332H10.8333V14.9998H9.16667Z" fill="#2D3748" fill-opacity="0.32"/>
</svg>
